<svg version="1.1" xmlns="http://www.w3.org/2000/svg" xmlns:xlink="http://www.w3.org/1999/xlink" width="1006.2236328125" height="464"><defs/><g><text fill="#eeeeee" stroke="none" font-family="Arial" font-size="24px" font-style="normal" font-weight="normal" text-decoration="none" x="0" y="0">UNREGISTERED</text><text fill="#eeeeee" stroke="none" font-family="Arial" font-size="24px" font-style="normal" font-weight="normal" text-decoration="none" x="0" y="30">UNREGISTERED</text><text fill="#eeeeee" stroke="none" font-family="Arial" font-size="24px" font-style="normal" font-weight="normal" text-decoration="none" x="0" y="60">UNREGISTERED</text><text fill="#eeeeee" stroke="none" font-family="Arial" font-size="24px" font-style="normal" font-weight="normal" text-decoration="none" x="0" y="90">UNREGISTERED</text><text fill="#eeeeee" stroke="none" font-family="Arial" font-size="24px" font-style="normal" font-weight="normal" text-decoration="none" x="0" y="120">UNREGISTERED</text><text fill="#eeeeee" stroke="none" font-family="Arial" font-size="24px" font-style="normal" font-weight="normal" text-decoration="none" x="0" y="150">UNREGISTERED</text><text fill="#eeeeee" stroke="none" font-family="Arial" font-size="24px" font-style="normal" font-weight="normal" text-decoration="none" x="0" y="180">UNREGISTERED</text><text fill="#eeeeee" stroke="none" font-family="Arial" font-size="24px" font-style="normal" font-weight="normal" text-decoration="none" x="0" y="210">UNREGISTERED</text><text fill="#eeeeee" stroke="none" font-family="Arial" font-size="24px" font-style="normal" font-weight="normal" text-decoration="none" x="0" y="240">UNREGISTERED</text><text fill="#eeeeee" stroke="none" font-family="Arial" font-size="24px" font-style="normal" font-weight="normal" text-decoration="none" x="0" y="270">UNREGISTERED</text><text fill="#eeeeee" stroke="none" font-family="Arial" font-size="24px" font-style="normal" font-weight="normal" text-decoration="none" x="0" y="300">UNREGISTERED</text><text fill="#eeeeee" stroke="none" font-family="Arial" font-size="24px" font-style="normal" font-weight="normal" text-decoration="none" x="0" y="330">UNREGISTERED</text><text fill="#eeeeee" stroke="none" font-family="Arial" font-size="24px" font-style="normal" font-weight="normal" text-decoration="none" x="0" y="360">UNREGISTERED</text><text fill="#eeeeee" stroke="none" font-family="Arial" font-size="24px" font-style="normal" font-weight="normal" text-decoration="none" x="0" y="390">UNREGISTERED</text><text fill="#eeeeee" stroke="none" font-family="Arial" font-size="24px" font-style="normal" font-weight="normal" text-decoration="none" x="0" y="420">UNREGISTERED</text><text fill="#eeeeee" stroke="none" font-family="Arial" font-size="24px" font-style="normal" font-weight="normal" text-decoration="none" x="0" y="450">UNREGISTERED</text><text fill="#eeeeee" stroke="none" font-family="Arial" font-size="24px" font-style="normal" font-weight="normal" text-decoration="none" x="200" y="0">UNREGISTERED</text><text fill="#eeeeee" stroke="none" font-family="Arial" font-size="24px" font-style="normal" font-weight="normal" text-decoration="none" x="200" y="30">UNREGISTERED</text><text fill="#eeeeee" stroke="none" font-family="Arial" font-size="24px" font-style="normal" font-weight="normal" text-decoration="none" x="200" y="60">UNREGISTERED</text><text fill="#eeeeee" stroke="none" font-family="Arial" font-size="24px" font-style="normal" font-weight="normal" text-decoration="none" x="200" y="90">UNREGISTERED</text><text fill="#eeeeee" stroke="none" font-family="Arial" font-size="24px" font-style="normal" font-weight="normal" text-decoration="none" x="200" y="120">UNREGISTERED</text><text fill="#eeeeee" stroke="none" font-family="Arial" font-size="24px" font-style="normal" font-weight="normal" text-decoration="none" x="200" y="150">UNREGISTERED</text><text fill="#eeeeee" stroke="none" font-family="Arial" font-size="24px" font-style="normal" font-weight="normal" text-decoration="none" x="200" y="180">UNREGISTERED</text><text fill="#eeeeee" stroke="none" font-family="Arial" font-size="24px" font-style="normal" font-weight="normal" text-decoration="none" x="200" y="210">UNREGISTERED</text><text fill="#eeeeee" stroke="none" font-family="Arial" font-size="24px" font-style="normal" font-weight="normal" text-decoration="none" x="200" y="240">UNREGISTERED</text><text fill="#eeeeee" stroke="none" font-family="Arial" font-size="24px" font-style="normal" font-weight="normal" text-decoration="none" x="200" y="270">UNREGISTERED</text><text fill="#eeeeee" stroke="none" font-family="Arial" font-size="24px" font-style="normal" font-weight="normal" text-decoration="none" x="200" y="300">UNREGISTERED</text><text fill="#eeeeee" stroke="none" font-family="Arial" font-size="24px" font-style="normal" font-weight="normal" text-decoration="none" x="200" y="330">UNREGISTERED</text><text fill="#eeeeee" stroke="none" font-family="Arial" font-size="24px" font-style="normal" font-weight="normal" text-decoration="none" x="200" y="360">UNREGISTERED</text><text fill="#eeeeee" stroke="none" font-family="Arial" font-size="24px" font-style="normal" font-weight="normal" text-decoration="none" x="200" y="390">UNREGISTERED</text><text fill="#eeeeee" stroke="none" font-family="Arial" font-size="24px" font-style="normal" font-weight="normal" text-decoration="none" x="200" y="420">UNREGISTERED</text><text fill="#eeeeee" stroke="none" font-family="Arial" font-size="24px" font-style="normal" font-weight="normal" text-decoration="none" x="200" y="450">UNREGISTERED</text><text fill="#eeeeee" stroke="none" font-family="Arial" font-size="24px" font-style="normal" font-weight="normal" text-decoration="none" x="400" y="0">UNREGISTERED</text><text fill="#eeeeee" stroke="none" font-family="Arial" font-size="24px" font-style="normal" font-weight="normal" text-decoration="none" x="400" y="30">UNREGISTERED</text><text fill="#eeeeee" stroke="none" font-family="Arial" font-size="24px" font-style="normal" font-weight="normal" text-decoration="none" x="400" y="60">UNREGISTERED</text><text fill="#eeeeee" stroke="none" font-family="Arial" font-size="24px" font-style="normal" font-weight="normal" text-decoration="none" x="400" y="90">UNREGISTERED</text><text fill="#eeeeee" stroke="none" font-family="Arial" font-size="24px" font-style="normal" font-weight="normal" text-decoration="none" x="400" y="120">UNREGISTERED</text><text fill="#eeeeee" stroke="none" font-family="Arial" font-size="24px" font-style="normal" font-weight="normal" text-decoration="none" x="400" y="150">UNREGISTERED</text><text fill="#eeeeee" stroke="none" font-family="Arial" font-size="24px" font-style="normal" font-weight="normal" text-decoration="none" x="400" y="180">UNREGISTERED</text><text fill="#eeeeee" stroke="none" font-family="Arial" font-size="24px" font-style="normal" font-weight="normal" text-decoration="none" x="400" y="210">UNREGISTERED</text><text fill="#eeeeee" stroke="none" font-family="Arial" font-size="24px" font-style="normal" font-weight="normal" text-decoration="none" x="400" y="240">UNREGISTERED</text><text fill="#eeeeee" stroke="none" font-family="Arial" font-size="24px" font-style="normal" font-weight="normal" text-decoration="none" x="400" y="270">UNREGISTERED</text><text fill="#eeeeee" stroke="none" font-family="Arial" font-size="24px" font-style="normal" font-weight="normal" text-decoration="none" x="400" y="300">UNREGISTERED</text><text fill="#eeeeee" stroke="none" font-family="Arial" font-size="24px" font-style="normal" font-weight="normal" text-decoration="none" x="400" y="330">UNREGISTERED</text><text fill="#eeeeee" stroke="none" font-family="Arial" font-size="24px" font-style="normal" font-weight="normal" text-decoration="none" x="400" y="360">UNREGISTERED</text><text fill="#eeeeee" stroke="none" font-family="Arial" font-size="24px" font-style="normal" font-weight="normal" text-decoration="none" x="400" y="390">UNREGISTERED</text><text fill="#eeeeee" stroke="none" font-family="Arial" font-size="24px" font-style="normal" font-weight="normal" text-decoration="none" x="400" y="420">UNREGISTERED</text><text fill="#eeeeee" stroke="none" font-family="Arial" font-size="24px" font-style="normal" font-weight="normal" text-decoration="none" x="400" y="450">UNREGISTERED</text><text fill="#eeeeee" stroke="none" font-family="Arial" font-size="24px" font-style="normal" font-weight="normal" text-decoration="none" x="600" y="0">UNREGISTERED</text><text fill="#eeeeee" stroke="none" font-family="Arial" font-size="24px" font-style="normal" font-weight="normal" text-decoration="none" x="600" y="30">UNREGISTERED</text><text fill="#eeeeee" stroke="none" font-family="Arial" font-size="24px" font-style="normal" font-weight="normal" text-decoration="none" x="600" y="60">UNREGISTERED</text><text fill="#eeeeee" stroke="none" font-family="Arial" font-size="24px" font-style="normal" font-weight="normal" text-decoration="none" x="600" y="90">UNREGISTERED</text><text fill="#eeeeee" stroke="none" font-family="Arial" font-size="24px" font-style="normal" font-weight="normal" text-decoration="none" x="600" y="120">UNREGISTERED</text><text fill="#eeeeee" stroke="none" font-family="Arial" font-size="24px" font-style="normal" font-weight="normal" text-decoration="none" x="600" y="150">UNREGISTERED</text><text fill="#eeeeee" stroke="none" font-family="Arial" font-size="24px" font-style="normal" font-weight="normal" text-decoration="none" x="600" y="180">UNREGISTERED</text><text fill="#eeeeee" stroke="none" font-family="Arial" font-size="24px" font-style="normal" font-weight="normal" text-decoration="none" x="600" y="210">UNREGISTERED</text><text fill="#eeeeee" stroke="none" font-family="Arial" font-size="24px" font-style="normal" font-weight="normal" text-decoration="none" x="600" y="240">UNREGISTERED</text><text fill="#eeeeee" stroke="none" font-family="Arial" font-size="24px" font-style="normal" font-weight="normal" text-decoration="none" x="600" y="270">UNREGISTERED</text><text fill="#eeeeee" stroke="none" font-family="Arial" font-size="24px" font-style="normal" font-weight="normal" text-decoration="none" x="600" y="300">UNREGISTERED</text><text fill="#eeeeee" stroke="none" font-family="Arial" font-size="24px" font-style="normal" font-weight="normal" text-decoration="none" x="600" y="330">UNREGISTERED</text><text fill="#eeeeee" stroke="none" font-family="Arial" font-size="24px" font-style="normal" font-weight="normal" text-decoration="none" x="600" y="360">UNREGISTERED</text><text fill="#eeeeee" stroke="none" font-family="Arial" font-size="24px" font-style="normal" font-weight="normal" text-decoration="none" x="600" y="390">UNREGISTERED</text><text fill="#eeeeee" stroke="none" font-family="Arial" font-size="24px" font-style="normal" font-weight="normal" text-decoration="none" x="600" y="420">UNREGISTERED</text><text fill="#eeeeee" stroke="none" font-family="Arial" font-size="24px" font-style="normal" font-weight="normal" text-decoration="none" x="600" y="450">UNREGISTERED</text><text fill="#eeeeee" stroke="none" font-family="Arial" font-size="24px" font-style="normal" font-weight="normal" text-decoration="none" x="800" y="0">UNREGISTERED</text><text fill="#eeeeee" stroke="none" font-family="Arial" font-size="24px" font-style="normal" font-weight="normal" text-decoration="none" x="800" y="30">UNREGISTERED</text><text fill="#eeeeee" stroke="none" font-family="Arial" font-size="24px" font-style="normal" font-weight="normal" text-decoration="none" x="800" y="60">UNREGISTERED</text><text fill="#eeeeee" stroke="none" font-family="Arial" font-size="24px" font-style="normal" font-weight="normal" text-decoration="none" x="800" y="90">UNREGISTERED</text><text fill="#eeeeee" stroke="none" font-family="Arial" font-size="24px" font-style="normal" font-weight="normal" text-decoration="none" x="800" y="120">UNREGISTERED</text><text fill="#eeeeee" stroke="none" font-family="Arial" font-size="24px" font-style="normal" font-weight="normal" text-decoration="none" x="800" y="150">UNREGISTERED</text><text fill="#eeeeee" stroke="none" font-family="Arial" font-size="24px" font-style="normal" font-weight="normal" text-decoration="none" x="800" y="180">UNREGISTERED</text><text fill="#eeeeee" stroke="none" font-family="Arial" font-size="24px" font-style="normal" font-weight="normal" text-decoration="none" x="800" y="210">UNREGISTERED</text><text fill="#eeeeee" stroke="none" font-family="Arial" font-size="24px" font-style="normal" font-weight="normal" text-decoration="none" x="800" y="240">UNREGISTERED</text><text fill="#eeeeee" stroke="none" font-family="Arial" font-size="24px" font-style="normal" font-weight="normal" text-decoration="none" x="800" y="270">UNREGISTERED</text><text fill="#eeeeee" stroke="none" font-family="Arial" font-size="24px" font-style="normal" font-weight="normal" text-decoration="none" x="800" y="300">UNREGISTERED</text><text fill="#eeeeee" stroke="none" font-family="Arial" font-size="24px" font-style="normal" font-weight="normal" text-decoration="none" x="800" y="330">UNREGISTERED</text><text fill="#eeeeee" stroke="none" font-family="Arial" font-size="24px" font-style="normal" font-weight="normal" text-decoration="none" x="800" y="360">UNREGISTERED</text><text fill="#eeeeee" stroke="none" font-family="Arial" font-size="24px" font-style="normal" font-weight="normal" text-decoration="none" x="800" y="390">UNREGISTERED</text><text fill="#eeeeee" stroke="none" font-family="Arial" font-size="24px" font-style="normal" font-weight="normal" text-decoration="none" x="800" y="420">UNREGISTERED</text><text fill="#eeeeee" stroke="none" font-family="Arial" font-size="24px" font-style="normal" font-weight="normal" text-decoration="none" x="800" y="450">UNREGISTERED</text><text fill="#eeeeee" stroke="none" font-family="Arial" font-size="24px" font-style="normal" font-weight="normal" text-decoration="none" x="1000" y="0">UNREGISTERED</text><text fill="#eeeeee" stroke="none" font-family="Arial" font-size="24px" font-style="normal" font-weight="normal" text-decoration="none" x="1000" y="30">UNREGISTERED</text><text fill="#eeeeee" stroke="none" font-family="Arial" font-size="24px" font-style="normal" font-weight="normal" text-decoration="none" x="1000" y="60">UNREGISTERED</text><text fill="#eeeeee" stroke="none" font-family="Arial" font-size="24px" font-style="normal" font-weight="normal" text-decoration="none" x="1000" y="90">UNREGISTERED</text><text fill="#eeeeee" stroke="none" font-family="Arial" font-size="24px" font-style="normal" font-weight="normal" text-decoration="none" x="1000" y="120">UNREGISTERED</text><text fill="#eeeeee" stroke="none" font-family="Arial" font-size="24px" font-style="normal" font-weight="normal" text-decoration="none" x="1000" y="150">UNREGISTERED</text><text fill="#eeeeee" stroke="none" font-family="Arial" font-size="24px" font-style="normal" font-weight="normal" text-decoration="none" x="1000" y="180">UNREGISTERED</text><text fill="#eeeeee" stroke="none" font-family="Arial" font-size="24px" font-style="normal" font-weight="normal" text-decoration="none" x="1000" y="210">UNREGISTERED</text><text fill="#eeeeee" stroke="none" font-family="Arial" font-size="24px" font-style="normal" font-weight="normal" text-decoration="none" x="1000" y="240">UNREGISTERED</text><text fill="#eeeeee" stroke="none" font-family="Arial" font-size="24px" font-style="normal" font-weight="normal" text-decoration="none" x="1000" y="270">UNREGISTERED</text><text fill="#eeeeee" stroke="none" font-family="Arial" font-size="24px" font-style="normal" font-weight="normal" text-decoration="none" x="1000" y="300">UNREGISTERED</text><text fill="#eeeeee" stroke="none" font-family="Arial" font-size="24px" font-style="normal" font-weight="normal" text-decoration="none" x="1000" y="330">UNREGISTERED</text><text fill="#eeeeee" stroke="none" font-family="Arial" font-size="24px" font-style="normal" font-weight="normal" text-decoration="none" x="1000" y="360">UNREGISTERED</text><text fill="#eeeeee" stroke="none" font-family="Arial" font-size="24px" font-style="normal" font-weight="normal" text-decoration="none" x="1000" y="390">UNREGISTERED</text><text fill="#eeeeee" stroke="none" font-family="Arial" font-size="24px" font-style="normal" font-weight="normal" text-decoration="none" x="1000" y="420">UNREGISTERED</text><text fill="#eeeeee" stroke="none" font-family="Arial" font-size="24px" font-style="normal" font-weight="normal" text-decoration="none" x="1000" y="450">UNREGISTERED</text><g transform="translate(-6,-46) scale(1,1)"><rect fill="#C0C0C0" stroke="none" x="367" y="63" width="75.45361328125" height="44" opacity="0.2"/></g><g transform="translate(-6,-46) scale(1,1)"><rect fill="#ffffff" stroke="none" x="360" y="56" width="75.45361328125" height="44"/></g><g transform="translate(-6,-46) scale(1,1)"><path fill="none" stroke="#000000" d="M 360 56 L 435.45361328125 56 L 435.45361328125 100 L 360 100 L 360 56 Z Z" stroke-miterlimit="10"/></g><g transform="translate(-6,-46) scale(1,1)"><path fill="none" stroke="#000000" d="M 360 81 L 435.45361328125 81" stroke-miterlimit="10"/></g><g transform="translate(-6,-46) scale(1,1)"><path fill="none" stroke="#000000" d="M 360 91 L 435.45361328125 91" stroke-miterlimit="10"/></g><g transform="translate(-6,-46) scale(1,1)"><g><path fill="none" stroke="none"/><text fill="#000000" stroke="none" font-family="Arial" font-size="13px" font-style="normal" font-weight="bold" text-decoration="none" x="367.010498046875" y="75.5">Estudiante</text></g></g><g transform="translate(-6,-46) scale(1,1)"><rect fill="#C0C0C0" stroke="none" x="103" y="143" width="136.84814453125" height="44" opacity="0.2"/></g><g transform="translate(-6,-46) scale(1,1)"><rect fill="#ffffff" stroke="none" x="96" y="136" width="136.84814453125" height="44"/></g><g transform="translate(-6,-46) scale(1,1)"><path fill="none" stroke="#000000" d="M 96 136 L 232.84814453125 136 L 232.84814453125 180 L 96 180 L 96 136 Z Z" stroke-miterlimit="10"/></g><g transform="translate(-6,-46) scale(1,1)"><path fill="none" stroke="#000000" d="M 96 161 L 232.84814453125 161" stroke-miterlimit="10"/></g><g transform="translate(-6,-46) scale(1,1)"><path fill="none" stroke="#000000" d="M 96 171 L 232.84814453125 171" stroke-miterlimit="10"/></g><g transform="translate(-6,-46) scale(1,1)"><g><path fill="none" stroke="none"/><text fill="#000000" stroke="none" font-family="Arial" font-size="13px" font-style="normal" font-weight="bold" text-decoration="none" x="104.79736328125" y="155.5">EstudianteGraduado</text></g></g><g transform="translate(-6,-46) scale(1,1)"><path fill="none" stroke="#000000" d="M 231 135 L 359 91" stroke-miterlimit="10"/></g><g transform="translate(-6,-46) scale(1,1)"><path fill="#FFFFFF" stroke="none" d="M 342.51544726344235 105.56912904313944 L 359 91 L 337.041731032767 89.64559091753858"/></g><g transform="translate(-6,-46) scale(1,1)"><path fill="none" stroke="#000000" d="M 342.51544726344235 105.56912904313944 L 359 91 L 337.041731032767 89.64559091753858 L 342.51544726344235 105.56912904313944" stroke-miterlimit="10"/></g><g transform="translate(-6,-46) scale(1,1)"><rect fill="#C0C0C0" stroke="none" x="583" y="143" width="154.17724609375" height="44" opacity="0.2"/></g><g transform="translate(-6,-46) scale(1,1)"><rect fill="#ffffff" stroke="none" x="576" y="136" width="154.17724609375" height="44"/></g><g transform="translate(-6,-46) scale(1,1)"><path fill="none" stroke="#000000" d="M 576 136 L 730.17724609375 136 L 730.17724609375 180 L 576 180 L 576 136 Z Z" stroke-miterlimit="10"/></g><g transform="translate(-6,-46) scale(1,1)"><path fill="none" stroke="#000000" d="M 576 161 L 730.17724609375 161" stroke-miterlimit="10"/></g><g transform="translate(-6,-46) scale(1,1)"><path fill="none" stroke="#000000" d="M 576 171 L 730.17724609375 171" stroke-miterlimit="10"/></g><g transform="translate(-6,-46) scale(1,1)"><g><path fill="none" stroke="none"/><text fill="#000000" stroke="none" font-family="Arial" font-size="13px" font-style="normal" font-weight="bold" text-decoration="none" x="585.15283203125" y="155.5">EstudianteNoGraduado</text></g></g><g transform="translate(-6,-46) scale(1,1)"><path fill="none" stroke="#000000" d="M 579 135 L 436 90" stroke-miterlimit="10"/></g><g transform="translate(-6,-46) scale(1,1)"><path fill="#FFFFFF" stroke="none" d="M 457.9152098301093 88.07034249093762 L 436 90 L 452.86086739202193 104.13191957197081"/></g><g transform="translate(-6,-46) scale(1,1)"><path fill="none" stroke="#000000" d="M 457.9152098301093 88.07034249093762 L 436 90 L 452.86086739202193 104.13191957197081 L 457.9152098301093 88.07034249093762" stroke-miterlimit="10"/></g><g transform="translate(-6,-46) scale(1,1)"><rect fill="#C0C0C0" stroke="none" x="335" y="463" width="145.525390625" height="44" opacity="0.2"/></g><g transform="translate(-6,-46) scale(1,1)"><rect fill="#ffffff" stroke="none" x="328" y="456" width="145.525390625" height="44"/></g><g transform="translate(-6,-46) scale(1,1)"><path fill="none" stroke="#000000" d="M 328 456 L 473.525390625 456 L 473.525390625 500 L 328 500 L 328 456 Z Z" stroke-miterlimit="10"/></g><g transform="translate(-6,-46) scale(1,1)"><path fill="none" stroke="#000000" d="M 328 481 L 473.525390625 481" stroke-miterlimit="10"/></g><g transform="translate(-6,-46) scale(1,1)"><path fill="none" stroke="#000000" d="M 328 491 L 473.525390625 491" stroke-miterlimit="10"/></g><g transform="translate(-6,-46) scale(1,1)"><g><path fill="none" stroke="none"/><text fill="#000000" stroke="none" font-family="Arial" font-size="13px" font-style="normal" font-weight="bold" text-decoration="none" x="337.898681640625" y="475.5">EstudiantePrimerAnio</text></g></g><g transform="translate(-6,-46) scale(1,1)"><rect fill="#C0C0C0" stroke="none" x="511" y="463" width="159.94091796875" height="44" opacity="0.2"/></g><g transform="translate(-6,-46) scale(1,1)"><rect fill="#ffffff" stroke="none" x="504" y="456" width="159.94091796875" height="44"/></g><g transform="translate(-6,-46) scale(1,1)"><path fill="none" stroke="#000000" d="M 504 456 L 663.94091796875 456 L 663.94091796875 500 L 504 500 L 504 456 Z Z" stroke-miterlimit="10"/></g><g transform="translate(-6,-46) scale(1,1)"><path fill="none" stroke="#000000" d="M 504 481 L 663.94091796875 481" stroke-miterlimit="10"/></g><g transform="translate(-6,-46) scale(1,1)"><path fill="none" stroke="#000000" d="M 504 491 L 663.94091796875 491" stroke-miterlimit="10"/></g><g transform="translate(-6,-46) scale(1,1)"><g><path fill="none" stroke="none"/><text fill="#000000" stroke="none" font-family="Arial" font-size="13px" font-style="normal" font-weight="bold" text-decoration="none" x="514.21923828125" y="475.5">EstudianteSegundoAnio</text></g></g><g transform="translate(-6,-46) scale(1,1)"><rect fill="#C0C0C0" stroke="none" x="695" y="463" width="143.11962890625" height="44" opacity="0.2"/></g><g transform="translate(-6,-46) scale(1,1)"><rect fill="#ffffff" stroke="none" x="688" y="456" width="143.11962890625" height="44"/></g><g transform="translate(-6,-46) scale(1,1)"><path fill="none" stroke="#000000" d="M 688 456 L 831.11962890625 456 L 831.11962890625 500 L 688 500 L 688 456 Z Z" stroke-miterlimit="10"/></g><g transform="translate(-6,-46) scale(1,1)"><path fill="none" stroke="#000000" d="M 688 481 L 831.11962890625 481" stroke-miterlimit="10"/></g><g transform="translate(-6,-46) scale(1,1)"><path fill="none" stroke="#000000" d="M 688 491 L 831.11962890625 491" stroke-miterlimit="10"/></g><g transform="translate(-6,-46) scale(1,1)"><g><path fill="none" stroke="none"/><text fill="#000000" stroke="none" font-family="Arial" font-size="13px" font-style="normal" font-weight="bold" text-decoration="none" x="697.77490234375" y="475.5">EstudianteTercerAnio</text></g></g><g transform="translate(-6,-46) scale(1,1)"><rect fill="#C0C0C0" stroke="none" x="863" y="463" width="146.2236328125" height="44" opacity="0.2"/></g><g transform="translate(-6,-46) scale(1,1)"><rect fill="#ffffff" stroke="none" x="856" y="456" width="146.2236328125" height="44"/></g><g transform="translate(-6,-46) scale(1,1)"><path fill="none" stroke="#000000" d="M 856 456 L 1002.2236328125 456 L 1002.2236328125 500 L 856 500 L 856 456 Z Z" stroke-miterlimit="10"/></g><g transform="translate(-6,-46) scale(1,1)"><path fill="none" stroke="#000000" d="M 856 481 L 1002.2236328125 481" stroke-miterlimit="10"/></g><g transform="translate(-6,-46) scale(1,1)"><path fill="none" stroke="#000000" d="M 856 491 L 1002.2236328125 491" stroke-miterlimit="10"/></g><g transform="translate(-6,-46) scale(1,1)"><g><path fill="none" stroke="none"/><text fill="#000000" stroke="none" font-family="Arial" font-size="13px" font-style="normal" font-weight="bold" text-decoration="none" x="865.87646484375" y="475.5">EstudianteCuartoAnio</text></g></g><g transform="translate(-6,-46) scale(1,1)"><rect fill="#C0C0C0" stroke="none" x="23" y="263" width="140.45361328125" height="44" opacity="0.2"/></g><g transform="translate(-6,-46) scale(1,1)"><rect fill="#ffffff" stroke="none" x="16" y="256" width="140.45361328125" height="44"/></g><g transform="translate(-6,-46) scale(1,1)"><path fill="none" stroke="#000000" d="M 16 256 L 156.45361328125 256 L 156.45361328125 300 L 16 300 L 16 256 Z Z" stroke-miterlimit="10"/></g><g transform="translate(-6,-46) scale(1,1)"><path fill="none" stroke="#000000" d="M 16 281 L 156.45361328125 281" stroke-miterlimit="10"/></g><g transform="translate(-6,-46) scale(1,1)"><path fill="none" stroke="#000000" d="M 16 291 L 156.45361328125 291" stroke-miterlimit="10"/></g><g transform="translate(-6,-46) scale(1,1)"><g><path fill="none" stroke="none"/><text fill="#000000" stroke="none" font-family="Arial" font-size="13px" font-style="normal" font-weight="bold" text-decoration="none" x="25.52099609375" y="275.5">EstudianteDoctorado</text></g></g><g transform="translate(-6,-46) scale(1,1)"><path fill="none" stroke="#000000" d="M 101 255 L 149 181" stroke-miterlimit="10"/></g><g transform="translate(-6,-46) scale(1,1)"><path fill="#FFFFFF" stroke="none" d="M 145.00237034564086 202.63374579555256 L 149 181 L 130.87588060822904 193.4706173172314"/></g><g transform="translate(-6,-46) scale(1,1)"><path fill="none" stroke="#000000" d="M 145.00237034564086 202.63374579555256 L 149 181 L 130.87588060822904 193.4706173172314 L 145.00237034564086 202.63374579555256" stroke-miterlimit="10"/></g><g transform="translate(-6,-46) scale(1,1)"><rect fill="#C0C0C0" stroke="none" x="183" y="263" width="128.20263671875" height="44" opacity="0.2"/></g><g transform="translate(-6,-46) scale(1,1)"><rect fill="#ffffff" stroke="none" x="176" y="256" width="128.20263671875" height="44"/></g><g transform="translate(-6,-46) scale(1,1)"><path fill="none" stroke="#000000" d="M 176 256 L 304.20263671875 256 L 304.20263671875 300 L 176 300 L 176 256 Z Z" stroke-miterlimit="10"/></g><g transform="translate(-6,-46) scale(1,1)"><path fill="none" stroke="#000000" d="M 176 281 L 304.20263671875 281" stroke-miterlimit="10"/></g><g transform="translate(-6,-46) scale(1,1)"><path fill="none" stroke="#000000" d="M 176 291 L 304.20263671875 291" stroke-miterlimit="10"/></g><g transform="translate(-6,-46) scale(1,1)"><g><path fill="none" stroke="none"/><text fill="#000000" stroke="none" font-family="Arial" font-size="13px" font-style="normal" font-weight="bold" text-decoration="none" x="184.4609375" y="275.5">EstudianteMaestria</text></g></g><g transform="translate(-6,-46) scale(1,1)"><path fill="none" stroke="#000000" d="M 225 255 L 179 181" stroke-miterlimit="10"/></g><g transform="translate(-6,-46) scale(1,1)"><path fill="#FFFFFF" stroke="none" d="M 196.8806089519466 193.81732513075823 L 179 181 L 182.58028232503443 202.70671735829825"/></g><g transform="translate(-6,-46) scale(1,1)"><path fill="none" stroke="#000000" d="M 196.8806089519466 193.81732513075823 L 179 181 L 182.58028232503443 202.70671735829825 L 196.8806089519466 193.81732513075823" stroke-miterlimit="10"/></g><g transform="translate(-6,-46) scale(1,1)"><rect fill="#C0C0C0" stroke="none" x="367" y="263" width="118.7890625" height="44" opacity="0.2"/></g><g transform="translate(-6,-46) scale(1,1)"><rect fill="#ffffff" stroke="none" x="360" y="256" width="118.7890625" height="44"/></g><g transform="translate(-6,-46) scale(1,1)"><path fill="none" stroke="#000000" d="M 360 256 L 478.7890625 256 L 478.7890625 300 L 360 300 L 360 256 Z Z" stroke-miterlimit="10"/></g><g transform="translate(-6,-46) scale(1,1)"><path fill="none" stroke="#000000" d="M 360 281 L 478.7890625 281" stroke-miterlimit="10"/></g><g transform="translate(-6,-46) scale(1,1)"><path fill="none" stroke="#000000" d="M 360 291 L 478.7890625 291" stroke-miterlimit="10"/></g><g transform="translate(-6,-46) scale(1,1)"><g><path fill="none" stroke="none"/><text fill="#000000" stroke="none" font-family="Arial" font-size="13px" font-style="normal" font-weight="bold" text-decoration="none" x="368.689453125" y="275.5">EstudianteTrunco</text></g></g><g transform="translate(-6,-46) scale(1,1)"><path fill="none" stroke="#000000" d="M 464 255 L 608 181" stroke-miterlimit="10"/></g><g transform="translate(-6,-46) scale(1,1)"><path fill="#FFFFFF" stroke="none" d="M 593.7700766400374 197.77823832139688 L 608 181 L 586.0739186029818 182.80193078982933"/></g><g transform="translate(-6,-46) scale(1,1)"><path fill="none" stroke="#000000" d="M 593.7700766400374 197.77823832139688 L 608 181 L 586.0739186029818 182.80193078982933 L 593.7700766400374 197.77823832139688" stroke-miterlimit="10"/></g><g transform="translate(-6,-46) scale(1,1)"><rect fill="#C0C0C0" stroke="none" x="591" y="263" width="141.20263671875" height="44" opacity="0.2"/></g><g transform="translate(-6,-46) scale(1,1)"><rect fill="#ffffff" stroke="none" x="584" y="256" width="141.20263671875" height="44"/></g><g transform="translate(-6,-46) scale(1,1)"><path fill="none" stroke="#000000" d="M 584 256 L 725.20263671875 256 L 725.20263671875 300 L 584 300 L 584 256 Z Z" stroke-miterlimit="10"/></g><g transform="translate(-6,-46) scale(1,1)"><path fill="none" stroke="#000000" d="M 584 281 L 725.20263671875 281" stroke-miterlimit="10"/></g><g transform="translate(-6,-46) scale(1,1)"><path fill="none" stroke="#000000" d="M 584 291 L 725.20263671875 291" stroke-miterlimit="10"/></g><g transform="translate(-6,-46) scale(1,1)"><g><path fill="none" stroke="none"/><text fill="#000000" stroke="none" font-family="Arial" font-size="13px" font-style="normal" font-weight="bold" text-decoration="none" x="599.681396484375" y="275.5">EstudianteIrregular</text></g></g><g transform="translate(-6,-46) scale(1,1)"><path fill="none" stroke="#000000" d="M 654 255 L 653 181" stroke-miterlimit="10"/></g><g transform="translate(-6,-46) scale(1,1)"><path fill="#FFFFFF" stroke="none" d="M 661.692908708341 201.2097337485789 L 653 181 L 644.8563749163087 201.43725447549826"/></g><g transform="translate(-6,-46) scale(1,1)"><path fill="none" stroke="#000000" d="M 661.692908708341 201.2097337485789 L 653 181 L 644.8563749163087 201.43725447549826 L 661.692908708341 201.2097337485789" stroke-miterlimit="10"/></g><g transform="translate(-6,-46) scale(1,1)"><rect fill="#C0C0C0" stroke="none" x="807" y="263" width="125.29541015625" height="44" opacity="0.2"/></g><g transform="translate(-6,-46) scale(1,1)"><rect fill="#ffffff" stroke="none" x="800" y="256" width="125.29541015625" height="44"/></g><g transform="translate(-6,-46) scale(1,1)"><path fill="none" stroke="#000000" d="M 800 256 L 925.29541015625 256 L 925.29541015625 300 L 800 300 L 800 256 Z Z" stroke-miterlimit="10"/></g><g transform="translate(-6,-46) scale(1,1)"><path fill="none" stroke="#000000" d="M 800 281 L 925.29541015625 281" stroke-miterlimit="10"/></g><g transform="translate(-6,-46) scale(1,1)"><path fill="none" stroke="#000000" d="M 800 291 L 925.29541015625 291" stroke-miterlimit="10"/></g><g transform="translate(-6,-46) scale(1,1)"><g><path fill="none" stroke="none"/><text fill="#000000" stroke="none" font-family="Arial" font-size="13px" font-style="normal" font-weight="bold" text-decoration="none" x="809.168701171875" y="275.5">EstudianteRegular</text></g></g><g transform="translate(-6,-46) scale(1,1)"><path fill="none" stroke="#000000" d="M 822 255 L 693 181" stroke-miterlimit="10"/></g><g transform="translate(-6,-46) scale(1,1)"><path fill="#FFFFFF" stroke="none" d="M 714.8196985842293 183.81082793734922 L 693 181 L 706.4413013371068 198.41641232760327"/></g><g transform="translate(-6,-46) scale(1,1)"><path fill="none" stroke="#000000" d="M 714.8196985842293 183.81082793734922 L 693 181 L 706.4413013371068 198.41641232760327 L 714.8196985842293 183.81082793734922" stroke-miterlimit="10"/></g><g transform="translate(-6,-46) scale(1,1)"><path fill="none" stroke="#000000" d="M 402 455 L 417 301" stroke-miterlimit="10"/></g><g transform="translate(-6,-46) scale(1,1)"><path fill="#FFFFFF" stroke="none" d="M 423.4089636526205 322.0457878184541 L 417 301 L 406.65020237730397 320.41344094098815"/></g><g transform="translate(-6,-46) scale(1,1)"><path fill="none" stroke="#000000" d="M 423.4089636526205 322.0457878184541 L 417 301 L 406.65020237730397 320.41344094098815 L 423.4089636526205 322.0457878184541" stroke-miterlimit="10"/></g><g transform="translate(-6,-46) scale(1,1)"><path fill="none" stroke="#000000" d="M 564 455 L 438 301" stroke-miterlimit="10"/></g><g transform="translate(-6,-46) scale(1,1)"><path fill="#FFFFFF" stroke="none" d="M 457.38675352667906 311.39970132724 L 438 301 L 444.3548055531008 322.0622042147131"/></g><g transform="translate(-6,-46) scale(1,1)"><path fill="none" stroke="#000000" d="M 457.38675352667906 311.39970132724 L 438 301 L 444.3548055531008 322.0622042147131 L 457.38675352667906 311.39970132724" stroke-miterlimit="10"/></g><g transform="translate(-6,-46) scale(1,1)"><path fill="none" stroke="#000000" d="M 720 455 L 458 301" stroke-miterlimit="10"/></g><g transform="translate(-6,-46) scale(1,1)"><path fill="#FFFFFF" stroke="none" d="M 479.7887508453535 304.04143660119803 L 458 301 L 471.2563530310775 318.55759392158967"/></g><g transform="translate(-6,-46) scale(1,1)"><path fill="none" stroke="#000000" d="M 479.7887508453535 304.04143660119803 L 458 301 L 471.2563530310775 318.55759392158967 L 479.7887508453535 304.04143660119803" stroke-miterlimit="10"/></g><g transform="translate(-6,-46) scale(1,1)"><path fill="none" stroke="#000000" d="M 870 455 L 478 301" stroke-miterlimit="10"/></g><g transform="translate(-6,-46) scale(1,1)"><path fill="#FFFFFF" stroke="none" d="M 499.99628991065265 300.5959824675565 L 478 301 L 493.8394092936768 316.2680422198586"/></g><g transform="translate(-6,-46) scale(1,1)"><path fill="none" stroke="#000000" d="M 499.99628991065265 300.5959824675565 L 478 301 L 493.8394092936768 316.2680422198586 L 499.99628991065265 300.5959824675565" stroke-miterlimit="10"/></g><g transform="translate(-6,-46) scale(1,1)"><path fill="none" stroke="#000000" d="M 429 455 L 625 301" stroke-miterlimit="10"/></g><g transform="translate(-6,-46) scale(1,1)"><path fill="#FFFFFF" stroke="none" d="M 614.2192663617345 320.17748112294134 L 625 301 L 603.8163431901078 306.9373970863254"/></g><g transform="translate(-6,-46) scale(1,1)"><path fill="none" stroke="#000000" d="M 614.2192663617345 320.17748112294134 L 625 301 L 603.8163431901078 306.9373970863254 L 614.2192663617345 320.17748112294134" stroke-miterlimit="10"/></g><g transform="translate(-6,-46) scale(1,1)"><path fill="none" stroke="#000000" d="M 591 455 L 646 301" stroke-miterlimit="10"/></g><g transform="translate(-6,-46) scale(1,1)"><path fill="#FFFFFF" stroke="none" d="M 647.0924037059317 322.9728617649879 L 646 301 L 631.2352865121601 317.3096056243552"/></g><g transform="translate(-6,-46) scale(1,1)"><path fill="none" stroke="#000000" d="M 647.0924037059317 322.9728617649879 L 646 301 L 631.2352865121601 317.3096056243552 L 647.0924037059317 322.9728617649879" stroke-miterlimit="10"/></g><g transform="translate(-6,-46) scale(1,1)"><path fill="none" stroke="#000000" d="M 747 455 L 666 301" stroke-miterlimit="10"/></g><g transform="translate(-6,-46) scale(1,1)"><path fill="#FFFFFF" stroke="none" d="M 682.9128517013837 315.06966408010516 L 666 301 L 668.0104372471917 322.90794700731004"/></g><g transform="translate(-6,-46) scale(1,1)"><path fill="none" stroke="#000000" d="M 682.9128517013837 315.06966408010516 L 666 301 L 668.0104372471917 322.90794700731004 L 682.9128517013837 315.06966408010516" stroke-miterlimit="10"/></g><g transform="translate(-6,-46) scale(1,1)"><path fill="none" stroke="#000000" d="M 897 455 L 686 301" stroke-miterlimit="10"/></g><g transform="translate(-6,-46) scale(1,1)"><path fill="#FFFFFF" stroke="none" d="M 707.3809615132961 306.18213129580386 L 686 301 L 697.4543026940784 319.7829430546022"/></g><g transform="translate(-6,-46) scale(1,1)"><path fill="none" stroke="#000000" d="M 707.3809615132961 306.18213129580386 L 686 301 L 697.4543026940784 319.7829430546022 L 707.3809615132961 306.18213129580386" stroke-miterlimit="10"/></g><g transform="translate(-6,-46) scale(1,1)"><path fill="none" stroke="#000000" d="M 453 455 L 809 301" stroke-miterlimit="10"/></g><g transform="translate(-6,-46) scale(1,1)"><path fill="#FFFFFF" stroke="none" d="M 793.6878642693118 316.7967876280269 L 809 301 L 787.00266933764 301.3427006431231"/></g><g transform="translate(-6,-46) scale(1,1)"><path fill="none" stroke="#000000" d="M 793.6878642693118 316.7967876280269 L 809 301 L 787.00266933764 301.3427006431231 L 793.6878642693118 316.7967876280269" stroke-miterlimit="10"/></g><g transform="translate(-6,-46) scale(1,1)"><path fill="none" stroke="#000000" d="M 615 455 L 830 301" stroke-miterlimit="10"/></g><g transform="translate(-6,-46) scale(1,1)"><path fill="#FFFFFF" stroke="none" d="M 818.378670539173 319.6800616049015 L 830 301 L 808.5736808980379 305.99127736565447"/></g><g transform="translate(-6,-46) scale(1,1)"><path fill="none" stroke="#000000" d="M 818.378670539173 319.6800616049015 L 830 301 L 808.5736808980379 305.99127736565447 L 818.378670539173 319.6800616049015" stroke-miterlimit="10"/></g><g transform="translate(-6,-46) scale(1,1)"><path fill="none" stroke="#000000" d="M 771 455 L 850 301" stroke-miterlimit="10"/></g><g transform="translate(-6,-46) scale(1,1)"><path fill="#FFFFFF" stroke="none" d="M 848.2137188560587 322.9273618950114 L 850 301 L 833.2319222005193 315.2418947795075"/></g><g transform="translate(-6,-46) scale(1,1)"><path fill="none" stroke="#000000" d="M 848.2137188560587 322.9273618950114 L 850 301 L 833.2319222005193 315.2418947795075 L 848.2137188560587 322.9273618950114" stroke-miterlimit="10"/></g><g transform="translate(-6,-46) scale(1,1)"><path fill="none" stroke="#000000" d="M 921 455 L 870 301" stroke-miterlimit="10"/></g><g transform="translate(-6,-46) scale(1,1)"><path fill="#FFFFFF" stroke="none" d="M 884.3820133497796 317.64805370026056 L 870 301 L 868.3976675017326 322.9415708317567"/></g><g transform="translate(-6,-46) scale(1,1)"><path fill="none" stroke="#000000" d="M 884.3820133497796 317.64805370026056 L 870 301 L 868.3976675017326 322.9415708317567 L 884.3820133497796 317.64805370026056" stroke-miterlimit="10"/></g></g></svg>